<?xml version="1.0" encoding="utf-8"?>
<!-- Generator: Adobe Illustrator 16.0.0, SVG Export Plug-In . SVG Version: 6.00 Build 0)  -->
<!DOCTYPE svg PUBLIC "-//W3C//DTD SVG 1.1//EN" "http://www.w3.org/Graphics/SVG/1.1/DTD/svg11.dtd">
<svg version="1.1" id="Layer_1" xmlns="http://www.w3.org/2000/svg" xmlns:xlink="http://www.w3.org/1999/xlink" x="0px" y="0px"
	 width="1008.603px" height="426.301px" viewBox="0 0 1008.603 426.301" enable-background="new 0 0 1008.603 426.301"
	 xml:space="preserve">
<g>
	<g>
		<path d="M384.796,200.585c0-3.335-0.703-4.389-0.703-5.619c0-1.755,2.107-2.984,4.566-2.984c5.795,0,9.833,3.511,9.833,7.726
			v65.146c0,16.857,5.619,23.53,15.979,23.53c9.833,0,17.209-7.724,17.209-17.91c0-15.804-12.116-20.546-23.179-20.546
			c-3.161,0-6.146-13.169-0.878-13.169c8.253,0,28.446-5.442,28.446-30.905c0-13.345-8.604-27.041-30.202-27.041
			c-28.271,0-39.684,18.613-39.684,40.036c0,15.452,6.32,20.896,6.672,21.423c1.932-0.527,2.634,0.702,2.634,2.457
			c0,3.162-4.742,14.752-9.833,10.888c-2.809-2.633-12.819-13.169-12.819-33.715c0-32.835,21.598-54.259,52.855-54.259
			c26.515,0,43.898,14.926,43.898,39.861c0,19.139-9.833,30.906-22.652,37.754c10.185,2.985,18.438,11.764,18.438,26.866
			c0,17.559-13.345,30.376-30.729,30.376c-23.003,0-29.851-14.574-29.851-36.171L384.796,200.585L384.796,200.585z"/>
		<path d="M472.238,275.039c2.459,5.971,7.2,10.886,16.331,10.886c13.697,0,19.315-11.413,21.423-22.123
			c1.58-7.902,11.413-4.391,10.71,1.755c-1.229,10.711-8.253,31.958-34.064,31.958c-15.98,0-31.081-12.818-31.081-34.768
			c0-22.301,13.345-38.983,26.867-38.983c9.833,0,15.802,7.198,15.802,17.734C498.226,254.494,489.272,269.946,472.238,275.039z
			 M470.131,265.381c8.78-4.038,14.399-13.17,14.399-23.706c0-3.863-1.404-6.147-3.688-6.147c-8.604,0-11.238,19.316-10.888,26.692
			C469.956,263.273,470.131,264.327,470.131,265.381z"/>
		<path d="M571.447,266.961c0.702-3.688,2.458-5.268,4.215-5.268c2.809,0,6.146,3.864,6.146,7.199c0,0.177,0,0.528-0.176,1.23
			c-2.985,11.588-10.009,27.393-25.11,27.393c-6.145,0-10.886-2.985-13.521-7.198c-3.511,4.037-8.429,7.198-15.101,7.198
			c-13.696,0-20.896-11.59-20.896-26.516c0-29.324,20.37-47.235,41.792-47.235c4.741,0,8.078,2.809,8.078,7.375
			c0,2.985-0.527,4.04-2.284,4.04c-1.581,0-3.336-0.353-5.092-0.353c-13.345,0-28.974,11.415-28.974,36.701
			c0,9.132,3.863,14.397,10.009,14.397c4.741,0,7.901-4.213,9.833-9.129v-27.043c0-3.337-0.702-4.39-0.702-5.619
			c0-1.757,2.106-2.986,4.566-2.986c5.795,0,9.481,3.512,9.481,7.726v28.975c0,3.861,1.757,8.075,5.971,8.075
			C566.707,285.924,569.867,274.688,571.447,266.961z"/>
		<path d="M569.864,264.327c0-20.192,11.939-40.562,28.621-40.562c12.117,0,16.682,11.062,16.682,17.208
			c0,6.672-12.116,10.184-11.062,4.039c-0.878-2.985-1.229-9.483-7.199-9.483c-6.497,0-12.643,12.995-12.643,28.798
			c0,13.873,7.55,21.598,17.911,21.598c13.696,0,20.018-11.414,22.125-22.123c1.58-7.903,11.413-4.392,10.711,1.755
			c-1.229,10.711-8.955,31.958-34.768,31.958C584.613,297.515,569.864,285.924,569.864,264.327z"/>
		<path d="M624.295,184.431c0-5.093-1.756-5.444-1.756-6.673s3.161-1.932,5.62-1.932c5.794,0,9.482,3.512,9.482,7.727v57.595
			c4.74-9.833,11.062-17.384,19.667-17.384c11.764,0,14.574,9.658,14.574,17.734v36.351c0,1.579,0,8.075,4.566,8.075
			c7.023,0,10.185-11.238,11.765-18.963c2.108-10.711,11.59-2.458,10.186,3.161c-3.161,11.588-10.009,27.392-25.111,27.392
			c-9.307,0-14.749-7.55-14.749-16.505v-35.646c0-5.444-0.352-10.009-3.688-10.009c-5.093,0-15.979,15.101-17.208,28.974v25.637
			c0,3.335,0.176,7.55-4.917,7.55c-3.512,0-8.429-1.228-8.429-7.727L624.295,184.431L624.295,184.431z"/>
		<path d="M756.511,200.585c0-3.335-0.702-4.389-0.702-5.619c0-1.755,2.107-2.984,4.566-2.984c5.795,0,9.834,3.511,9.834,7.726
			v57.42c11.94-1.405,35.997-14.751,35.997-44.251c0-13.344-8.078-30.026-28.623-30.026c-28.271,0-39.684,18.613-39.684,40.038
			c0,15.45,6.321,20.894,6.672,21.421c1.932-0.527,2.634,0.702,2.634,2.458c0,3.16-4.741,14.751-9.833,10.887
			c-2.81-2.634-12.82-13.169-12.82-33.714c0-32.836,21.599-54.26,52.855-54.26c25.637,0,42.319,17.911,42.319,42.846
			c0,30.555-23.705,52.855-49.518,57.771v23.179c0,2.985-2.284,4.039-4.917,4.039c-4.039,0-8.779-2.458-8.779-5.091L756.511,200.585
			L756.511,200.585z"/>
		<path d="M877.315,270.297c-3.162,9.483-11.766,27.217-27.745,27.217c-13.521,0-20.721-9.306-20.721-23.178v-79.897
			c0-13.169,7.199-22.476,15.979-22.476c15.453,0,15.629,18.437,15.629,28.271c0,25.813-15.98,61.283-18.262,63.39v10.185
			c0,7.023,2.81,12.116,9.307,12.116c8.078,0,14.047-11.062,15.627-18.789C869.237,256.775,878.72,264.678,877.315,270.297z
			 M842.195,240.622c3.688-7.375,7.375-30.555,7.375-40.211c0-11.59-1.932-16.857-4.742-16.857c-1.931,0-2.634,4.213-2.634,7.022
			V240.622z"/>
		<path d="M902.246,306.821c-1.932-9.833-6.672-18.613-17.385-18.613l-2.458-9.658c12.292-3.512,25.461-14.398,25.461-31.959
			c0-5.969-3.161-11.237-10.008-11.237c-8.78,0-14.224,6.673-20.722,33.89c-2.457,10.008-10.711-0.175-9.833-4.565
			c4.39-23.003,10.185-40.915,30.554-40.915c14.75,0,23.354,10.711,23.354,24.232c0,14.751-10.008,26.515-22.477,32.135
			c6.674,3.688,11.415,8.429,14.4,16.156c6.847-7.2,13.169-16.332,16.856-29.326c1.053-3.688,2.458-5.268,4.215-5.268
			c2.81,0,6.145,3.864,6.145,7.199c0,0.177,0,1.054-0.175,1.757c-5.795,19.315-15.101,29.675-24.232,37.576
			c0.702,4.741,1.053,10.36,1.053,16.857c0,18.438-4.741,39.862-20.72,39.862c-9.833,0-16.858-8.956-16.858-20.195
			C879.418,326.489,890.305,317.534,902.246,306.821z M903.474,318.938c-6.848,6.319-11.764,13.344-11.764,25.285
			c0,5.443,1.756,9.656,4.566,9.656c6.672,0,7.375-16.857,7.375-26.338C903.65,325.083,903.65,322.098,903.474,318.938z"/>
	</g>
	<g>
		<path d="M196.179,75.816c-65.313,0-118.45,53.137-118.45,118.451c0,65.312,53.137,118.449,118.45,118.449
			c65.313,0,118.451-53.137,118.451-118.449C314.629,128.953,261.493,75.816,196.179,75.816z M282.323,258.624
			c-18.617,11.487-32.375,13.448-44.606,6.349c-28.148-16.334-38.98-20.731-79.388-4.613c-12.878,5.138-37.686,1.967-49.03-2.745
			c-3.649-4.99-6.877-10.304-9.635-15.891c6.28,1.866,12.491,1.937,18.565,0.178c14.629-4.234,26.056-16.165,38.154-28.795
			c9.407-9.822,19.136-19.979,30.612-26.537c14.021-8.01,28.008-8.115,37.262-6.798c-10.767,9.183-20.729,23.926-13.027,40.688
			c5.618,12.228,21.231,23.066,38.852,26.972c5.03,1.116,10.032,1.666,14.954,1.666c9.409,0,18.518-2.022,26.958-5.959
			C289.204,248.583,285.964,253.762,282.323,258.624z M196.179,86.696c59.314,0,107.569,48.255,107.569,107.571
			c0,11.04-1.674,21.696-4.777,31.73c-17.751,14.405-36.706,12.99-46.535,10.811c-14.239-3.155-27.117-11.748-31.319-20.894
			c-3.519-7.657-1.762-15.224,5.37-23.132c5.897-6.539,13.246-10.577,13.311-10.613l10.062-5.433l-10.562-4.379
			c-1.168-0.483-28.938-11.67-57.7,4.765c-12.846,7.34-23.128,18.075-33.072,28.457c-11.058,11.544-21.501,22.448-33.321,25.87
			c-6.713,1.944-13.949,0.431-21.507-4.487c-3.298-10.315-5.086-21.3-5.086-32.696C88.61,134.952,136.865,86.696,196.179,86.696z
			 M122.125,272.216c13.431,2.281,29.494,2.535,40.235-1.75c36.047-14.382,43.622-11.33,69.895,3.916
			c6.95,4.034,13.904,5.616,20.606,5.616c3.253,0,6.445-0.38,9.548-1.027c-18.271,14.318-41.271,22.864-66.23,22.864
			C167.511,301.835,141.427,290.562,122.125,272.216z"/>
		<path d="M142.855,177.723c13.546,0,24.567-11.021,24.567-24.566c0-13.546-11.021-24.567-24.567-24.567
			s-24.567,11.021-24.567,24.567C118.288,166.702,129.309,177.723,142.855,177.723z M142.855,139.47
			c7.547,0,13.687,6.139,13.687,13.687c0,7.546-6.14,13.686-13.687,13.686s-13.687-6.139-13.687-13.686
			C129.168,145.609,135.309,139.47,142.855,139.47z"/>
	</g>
</g>
</svg>
